<?xml version="1.0" standalone="no"?><!DOCTYPE svg PUBLIC "-//W3C//DTD SVG 1.1//EN"
        "http://www.w3.org/Graphics/SVG/1.1/DTD/svg11.dtd">
<svg width="200" height="200" viewBox="0 0 200 200" version="1.1" xmlns="http://www.w3.org/2000/svg"
>
    <defs>
        <style type="text/css"><![CDATA[
@font-face { font-family: ifont; src: url("//at.alicdn.com/t/font_1442373896_4754455.eot?#iefix") format("embedded-opentype"), url("//at.alicdn.com/t/font_1442373896_4754455.woff") format("woff"), url("//at.alicdn.com/t/font_1442373896_4754455.ttf") format("truetype"), url("//at.alicdn.com/t/font_1442373896_4754455.svg#ifont") format("svg"); }

]]></style>
    </defs>
    <g class="transform-group">
        <g transform="scale(0.1953125, 0.1953125)">
            <path d="M298.69387 842.151325M510.364757 464.996476c-4.635577 0-8.723685 1.635243-12.261255 4.904707-11.17655 10.083659-24.52251 20.167319-40.054251 30.244838l107.083877 0c-17.441231-10.627035-31.611975-20.844747-42.506093-30.65416C518.53995 466.497667 514.452865 464.996476 510.364757 464.996476zM511.99693 63.09706c-247.530606 0-448.882474 201.356984-448.882474 448.88759 0 91.696422 27.602661 179.497117 79.980589 254.959809l-45.331441 151.125953c-3.508917 11.720949-0.293689 24.418133 8.346085 33.056883 8.632611 8.668427 21.231557 11.881608 33.05586 8.344039l165.374468-49.647747c63.937195 33.44881 135.337361 51.079352 207.457936 51.079352 247.530606-0.034792 448.88759-201.421452 448.88759-448.88759C960.88452 264.482697 759.527536 63.09706 511.99693 63.09706zM322.764078 397.558551c18.525935-19.343557 31.880081-42.097794 40.055275-68.255547 2.450818-7.082302 6.538927-11.987009 12.261255-14.71412 4.903683-2.720971 10.761088-3.12927 17.574261-1.225921 5.990434 2.183735 10.351766 5.862521 13.078877 11.035334 2.178619 5.722328 2.312672 11.994172 0.409322 18.801205l89.508593 0c6.540973 0.274246 11.852956 2.183735 15.940041 5.722328 3.813862 3.818979 5.722328 9.131985 5.722328 15.940041-0.274246 5.997598-2.183735 11.175527-5.722328 15.531741-4.087085 4.361331-9.400091 6.538927-15.940041 6.538927l-33.514301 0c7.899924 17.715477 10.485819 29.836539 7.765871 36.376489-3.001357 5.453199-7.496741 9.540284-13.487176 12.261255-6.538927 2.183735-12.401448 1.909489-17.574261-0.817622-5.722328-2.719948-9.949606-7.899924-12.670577-15.530718-5.454222-13.896498-10.626012-24.657586-15.530718-32.28838l-24.113187 0c-19.35072 33.515325-36.108383 50.681286-50.272987 51.498908-5.996574-0.543376-11.175527-2.995217-15.530718-7.356548-4.6366-5.172813-6.813173-10.627035-6.538927-16.34834C314.723961 408.459832 317.585125 402.737504 322.764078 397.558551zM660.773372 664.042835c0 9.809413-4.088108 18.800181-12.261255 26.975375-7.631818 7.624654-16.349363 11.444657-26.157753 11.444657L406.143067 702.462866c-10.083659-0.549515-17.715477-4.227278-22.88829-11.036357-6.813173-8.173147-10.083659-17.306154-9.80839-27.383674l0-70.300113c-0.274246-8.717546 2.862187-16.482393 9.401114-23.296589 6.264681-6.538927 14.030551-9.80839 23.296589-9.80839l24.931832 0 191.279465 0c11.444657 0 20.9788 3.409656 28.609595 10.217712 6.264681 5.996574 9.53619 13.627369 9.810437 22.887266L660.775418 664.042835zM709.819414 540.608571c-2.727111 7.089465-6.680143 11.995195-11.851932 14.71412-5.722328 3.00238-11.994172 3.269463-18.802228 0.818645-19.349697-6.540973-44.549635-17.984606-75.612095-34.332946 0.268106 0.275269 0.408299 0.816598 0.408299 1.635243 0 6.813173-2.184759 12.402471-6.538927 16.757662-4.361331 4.6366-9.949606 6.948249-16.757662 6.948249L443.336154 547.149545c-7.356548 0-13.078877-2.178619-17.165961-6.540973-4.361331-4.629437-6.538927-10.351766-6.538927-17.164938-27.791973 15.262612-52.723805 26.707268-74.794473 34.331923-7.089465 2.452865-13.487176 2.043542-19.209504-1.225921-5.996574-3.269463-9.949606-7.899924-11.852956-13.896498-2.452865-7.083326-2.317789-13.487176 0.409322-19.209504 2.995217-5.448082 7.898901-9.401114 14.71412-11.852956 64.027246-21.796422 117.435643-51.090609 160.215982-87.874373 6.538927-5.722328 13.622252-8.583492 21.253046-8.583492 0.818645 0 1.360997 0.140193 1.635243 0.408299-0.816598-2.177596-1.225921-4.221138-1.225921-6.130627-0.548492-6.264681 1.635243-12.395308 6.538927-18.391882 13.896498-18.251689 22.614044-38.010709 26.157753-59.263755 1.902326-7.356548 5.448082-12.669554 10.627035-15.940041 4.629437-3.270487 10.351766-4.355191 17.164938-3.270487 5.990434 1.909489 10.761088 5.0449 14.305821 9.401114 3.269463 5.722328 4.087085 12.401448 2.450818 20.027126-0.274246 0.549515-0.548492 1.225921-0.817622 2.043542l98.092086 0c6.808056 0.275269 12.261255 2.183735 16.34834 5.722328 4.088108 4.361331 6.131651 9.949606 6.131651 16.757662 0 6.27082-2.043542 11.584849-6.131651 15.940041-4.087085 4.6366-9.540284 6.948249-16.34834 6.948249l-33.923624 0c9.534144 16.623609 13.078877 28.341488 10.627035 35.149545-2.452865 5.722328-6.680143 10.217712-12.670577 13.487176-6.27082 2.452865-11.993149 2.727111-17.165961 0.817622-1.091868-0.542352-1.775436-0.951675-2.043542-1.225921-4.087085-2.719948-15.123442-18.800181-33.107025-48.228421l-25.749454 0c-11.718903 23.162536-22.210861 36.516682-31.470759 40.054251 39.23663 31.610952 90.735537 58.446134 154.4957 80.516802 7.082302 2.452865 11.987009 6.53995 14.71412 12.262278C711.454658 528.488533 711.722764 534.61916 709.819414 540.608571zM603.143836 607.639221 431.074899 607.639221c-2.452865-0.268106-4.6366 0.548492-6.538927 2.452865-1.635243 1.908466-2.452865 4.087085-2.452865 6.538927l0 29.835516c0 2.178619 0.951675 4.221138 2.860141 6.131651 1.360997 1.902326 3.40454 2.860141 6.131651 2.860141l172.069961 0c2.452865 0 4.629437-0.957815 6.538927-2.860141 1.360997-2.184759 2.177596-4.227278 2.452865-6.131651l0-29.835516c0-2.452865-0.817622-4.495384-2.452865-6.131651C607.773274 608.598059 605.596701 607.639221 603.143836 607.639221z"
                  fill="#04BD03"></path>
        </g>
    </g>
</svg>