<?xml version="1.0" standalone="no"?><!DOCTYPE svg PUBLIC "-//W3C//DTD SVG 1.1//EN"
        "http://www.w3.org/Graphics/SVG/1.1/DTD/svg11.dtd">
<svg width="200" height="200" viewBox="0 0 200 200" version="1.1" xmlns="http://www.w3.org/2000/svg"
>
    <defs>
        <style type="text/css"><![CDATA[
@font-face { font-family: ifont; src: url("//at.alicdn.com/t/font_1442373896_4754455.eot?#iefix") format("embedded-opentype"), url("//at.alicdn.com/t/font_1442373896_4754455.woff") format("woff"), url("//at.alicdn.com/t/font_1442373896_4754455.ttf") format("truetype"), url("//at.alicdn.com/t/font_1442373896_4754455.svg#ifont") format("svg"); }

]]></style>
    </defs>
    <g class="transform-group">
        <g transform="scale(0.1953125, 0.1953125)">
            <path d="M1015.52 1006.08c-2.24 2.496-8.128 8.48-10.784 10.784-10.592 9.216-33.6 9.408-43.072 0l-116.768-116.928c-27.136 17.312-59.264 27.456-93.824 27.456-96.736 0-175.136-78.56-175.136-175.456 0-96.896 78.4-175.456 175.136-175.456 96.736 0 175.136 78.56 175.136 175.456 0 34.816-10.24 67.2-27.712 94.496l117.024 116.512C1026.816 974.144 1026.176 994.144 1015.52 1006.08zM751.072 652.768c-54.656 0-99.008 44.416-99.008 99.168 0 54.784 44.32 99.168 99.008 99.168s99.008-44.384 99.008-99.168C850.08 697.184 805.76 652.768 751.072 652.768zM484.736 704.128l-228.48 0c-17.664 0-32-14.336-32-32 0-17.664 14.336-32 32-32l248.32 0C495.456 660.288 488.736 681.728 484.736 704.128zM601.408 464.096c31.392 14.976 49.92 20.704 60.192 31.84-30.592 10.816-58.752 26.72-83.2 47.072L288.352 543.008c0 0-0.224 5.824-0.096-8.256-0.096-47.04 16.64-44.8 70.816-70.656 18.464-8.832 76.832-34.752 76.832-34.752s2.944-13.216 0-23.168c-13.76-7.968-27.84-43.328-29.568-57.92-12.8-5.792-16.608-30.368-17.728-34.752-1.056-4.064 1.152-15.84 9.728-16.512-2.496-7.584-3.84-15.68-3.84-24.032 0-1.952 0.16-3.872 0.32-5.792-0.16-1.92-0.32-3.84-0.32-5.792 0-44.768 38.368-69.504 85.696-69.504s85.696 24.704 85.696 69.504c0 1.952-0.16 3.872-0.32 5.792 0.16 1.92 0.32 3.84 0.32 5.792 0 8.352-1.344 16.448-3.84 24.032 8.608 0.672 10.784 12.448 9.728 16.512-1.12 4.384-4.928 28.96-17.728 34.752-1.728 14.592-15.776 49.952-29.568 57.92-3.648 10.848 0 23.168 0 23.168S582.944 455.296 601.408 464.096zM896.256 521.696 896.256 64.128l-832 0 0 768 428 0c7.008 22.816 17.12 44.192 29.536 64L64.256 896.128c-35.36 0-64-28.64-64-64l0-768c0-35.36 28.64-64 64-64l832 0c35.36 0 64 28.64 64 64l0 512.896C941.984 555.392 920.352 536.768 896.256 521.696z"
                  fill="#ea8010"></path>
        </g>
    </g>
</svg>