<?xml version="1.0" standalone="no"?><!DOCTYPE svg PUBLIC "-//W3C//DTD SVG 1.1//EN"
        "http://www.w3.org/Graphics/SVG/1.1/DTD/svg11.dtd">
<svg t="1493228680816" class="icon" style="" viewBox="0 0 1024 1024" version="1.1" xmlns="http://www.w3.org/2000/svg"
     p-id="11661" width="500" height="500">
    <defs>
        <style type="text/css"></style>
    </defs>
    <path d="M556.651966 173.596733a341.93265 341.93265 0 0 0-39.418778-2.255366c-190.743252 0-347.158674 157.219741-354.49271 355.304191l0.896416-15.612582c-42.962487 17.824971-57.022715 53.837162-57.022714 102.856599 0 65.536622 50.967812 118.66975 113.853047 118.66975 3.15383 0 6.284123-0.128937 9.392928-0.394996l-16.301268 0.177032-7.480368-13.510712c61.878303 117.461225 180.230827 192.046944 311.154669 192.046944 129.268132 0 246.139933-73.238025 302.084083-175.825494 62.35414-0.725524 98.066503-52.481282 98.066503-117.54309 0-43.334971-13.799284-76.400041-45.853328-95.158267-0.938372-77.389578-24.361851-137.094378-67.162655-198.441584-8.063653-11.55722-23.589254-14.115486-34.680871-5.710049-11.087523 8.405437-13.538341 24.589025-5.474688 36.149315 36.802184 52.754504 57.283658 116.010177 58.087976 182.601828l0.182149 14.915711 12.475126 7.311523c20.087501 11.772115 32.772404 33.889855 32.772404 58.336639 0 36.686551-28.321022 66.505693-63.48694 66.920133l-14.285354 0.163729-7.03523 12.959149c-53.80851 99.04376-154.494677 161.570839-265.688152 161.570839-112.62201 0-214.390835-64.140833-267.635503-165.206646l-7.742335-14.702863-16.037254 1.36509a62.271252 62.271252 0 0 1-5.353938 0.226151c-35.458583 0-64.199161-29.961382-64.199161-66.920132 0-27.64871 16.237823-52.154847 40.463573-62.205761l15.000646-6.221701 0.62217-16.820084c6.306636-170.322154 140.836609-305.544905 304.882826-305.544905 11.482519 0 22.807449 0.648776 33.920553 1.939165 13.626345 1.582031 25.90602-8.651031 27.421537-22.856567 1.51654-14.205537-8.299013-26.999934-21.925359-28.582989m125.211746 466.980668a186.566116 186.566116 0 0 1-4.919032 9.570982c-33.604352 61.240783-96.028077 99.806123-164.949797 99.806124-72.658833 0-137.928373-42.909276-169.904644-109.459994-6.141884-12.777001-21.058618-17.945721-33.31578-11.544941-12.262278 6.399757-17.220197 21.948895-11.078313 34.725896 40.315194 83.895759 122.659621 138.02968 214.297714 138.02968 86.910419 0 165.686577-48.66435 208.043267-125.851313a240.216014 240.216014 0 0 0 6.297426-12.257162c6.097882-12.800537 1.086751-28.331255-11.192923-34.685986-12.281721-6.358825-27.181059-1.136893-33.277918 11.666714m-51.777247-475.707423c17.290805 0.311085 33.795711 7.41897 46.390564 20.382213 26.586518 27.374464 26.836205 72.04792 0.538259 99.764168-26.270317 27.725458-69.137637 27.986401-95.730295 0.591471-9.752108-10.04682-25.469068-9.950629-35.107589 0.212848-9.637498 10.166547-9.549493 26.551726 0.205684 36.597522 46.096874 47.488571 120.40937 47.03013 165.946497-1.024329 45.577035-48.031946 45.148269-125.495202-0.961908-172.968423-21.766746-22.396079-50.482765-34.763758-80.421634-35.300994-13.707187-0.249687-25.015743 11.136641-25.251104 25.425065-0.237407 14.286378 10.68434 26.071795 24.391526 26.320459m66.692959 325.332577c9.188266 9.391904 14.895245 22.475897 14.895245 36.94954 0 28.574802-22.237467 51.748594-49.655934 51.748594-27.41335 0-49.650817-23.173792-49.650816-51.748594 0-28.578896 22.237467-51.754734 49.650816-51.754734 13.534248 0 25.804712 5.647627 34.760689 14.805194m-295.849079 0c9.188266 9.391904 14.890128 22.475897 14.890129 36.94954 0 28.574802-22.236444 51.748594-49.649794 51.748594s-49.65184-23.173792-49.65184-51.748594c0-28.578896 22.237467-51.754734 49.65184-51.754734 13.532201 0 25.802666 5.647627 34.759665 14.805194m0 0z"
          p-id="11662" fill="#979797"></path>
</svg>