<?xml version="1.0" standalone="no"?><!DOCTYPE svg PUBLIC "-//W3C//DTD SVG 1.1//EN"
        "http://www.w3.org/Graphics/SVG/1.1/DTD/svg11.dtd">
<svg t="1484483200787" class="icon" style="" viewBox="0 0 1024 1024" version="1.1" xmlns="http://www.w3.org/2000/svg"
     p-id="5768" width="200" height="200">
    <defs>
        <style type="text/css"></style>
    </defs>
    <path d="M870.056885 358.2595c-19.628036-46.405913-47.727001-88.083128-83.516112-123.872239-35.787064-35.787064-77.462233-63.886029-123.871215-83.515089-48.048319-20.321838-99.085716-30.626531-151.692864-30.626531-52.608172 0-103.645568 10.304693-151.693888 30.626531-46.406936 19.628036-88.083128 47.727001-123.871215 83.515089-35.789111 35.789111-63.888076 77.465303-83.515089 123.872239-20.321838 48.048319-30.626531 99.084693-30.626531 151.693888s10.304693 103.646592 30.626531 151.694911c19.628036 46.405913 47.725978 88.082104 83.515089 123.872239 35.789111 35.789111 77.465303 63.887053 123.871215 83.514065 48.048319 20.322861 99.085716 30.627555 151.693888 30.627555 52.609195 0 103.646592-10.30367 151.693888-30.627555 46.406936-19.628036 88.082104-47.725978 123.872239-83.514065 35.789111-35.790134 63.887053-77.465303 83.514065-123.872239 20.322861-48.048319 30.627555-99.085716 30.627555-151.694911S890.379747 406.306796 870.056885 358.2595zM733.927485 315.219241 591.659271 582.043263c-1.955538 3.667529-4.927219 6.639211-8.593725 8.591679L316.242548 732.904179c-3.00852 1.603521-6.399757 2.451842-9.807367 2.451842-5.575995 0-10.816347-2.169409-14.754029-6.108115-6.535857-6.53688-8.005324-16.407692-3.65525-24.563442l142.264121-266.826068c1.954515-3.666506 4.925173-6.638187 8.591679-8.592702l266.822998-142.264121c3.010567-1.604544 6.402827-2.452865 9.80839-2.452865 5.571902 0 10.812253 2.169409 14.754029 6.107091C736.801952 297.191656 738.273467 307.063491 733.927485 315.219241z"
          p-id="5769" fill="#7A7E83"></path>
    <path d="M510.976694 547.580357c-9.903557 0-19.600407-4.016477-26.605961-11.021008-7.004531-7.005554-11.021008-16.703427-11.021008-26.605961s4.016477-19.600407 11.019984-26.605961c7.005554-7.004531 16.703427-11.021008 26.606984-11.021008 9.905604 0 19.602454 4.016477 26.605961 11.021008 7.004531 7.003508 11.021008 16.70138 11.021008 26.605961s-4.016477 19.602454-11.021008 26.605961C530.579147 543.56388 520.881274 547.580357 510.976694 547.580357z"
          p-id="5770" fill="#7A7E83"></path>
</svg>