<?xml version="1.0" standalone="no"?><!DOCTYPE svg PUBLIC "-//W3C//DTD SVG 1.1//EN"
        "http://www.w3.org/Graphics/SVG/1.1/DTD/svg11.dtd">
<svg t="1493228443529" class="icon" style="" viewBox="0 0 1024 1024" version="1.1" xmlns="http://www.w3.org/2000/svg"
     p-id="3532" width="500" height="500">
    <defs>
        <style type="text/css"></style>
    </defs>
    <path d="M324.266667 887.466667c-13.653333 0-27.306667-10.24-27.306667-27.306667L296.96 136.533333c0-30.72 23.893333-54.613333 54.613333-54.613333l324.266667 0c30.72 0 54.613333 23.893333 54.613333 54.613333l0 723.626667c0 13.653333-10.24 27.306667-27.306667 27.306667S682.666667 873.813333 682.666667 860.16L682.666667 136.533333c0-3.413333 0-3.413333-3.413333-3.413333l-324.266667 0c-3.413333 0-3.413333 0-3.413333 3.413333l0 723.626667C351.573333 877.226667 341.333333 887.466667 324.266667 887.466667z"
          p-id="3533" fill="#979797"></path>
    <path d="M515.413333 471.04c-64.853333 0-119.466667-54.613333-119.466667-119.466667s54.613333-119.466667 119.466667-119.466667 119.466667 54.613333 119.466667 119.466667S583.68 471.04 515.413333 471.04zM515.413333 266.24c-47.786667 0-85.333333 37.546667-85.333333 85.333333s37.546667 85.333333 85.333333 85.333333c47.786667 0 85.333333-37.546667 85.333333-85.333333S563.2 266.24 515.413333 266.24z"
          p-id="3534" fill="#979797"></path>
    <path d="M590.506667 877.226667c-10.24 0-17.066667-6.826667-17.066667-17.066667l0-194.56-112.64 0 0 194.56c0 10.24-6.826667 17.066667-17.066667 17.066667s-17.066667-6.826667-17.066667-17.066667l0-201.386667c0-17.066667 13.653333-27.306667 27.306667-27.306667L580.266667 631.466667c17.066667 0 27.306667 13.653333 27.306667 27.306667l0 201.386667C607.573333 870.4 600.746667 877.226667 590.506667 877.226667z"
          p-id="3535" fill="#979797"></path>
    <path d="M307.2 433.493333 88.746667 433.493333C58.026667 433.493333 34.133333 409.6 34.133333 378.88L34.133333 314.026667c0-30.72 23.893333-54.613333 54.613333-54.613333L307.2 259.413333c13.653333 0 27.306667 10.24 27.306667 27.306667S320.853333 310.613333 307.2 310.613333L88.746667 310.613333c-3.413333 0-3.413333 0-3.413333 3.413333l0 61.44c0 3.413333 0 3.413333 3.413333 3.413333L307.2 378.88c13.653333 0 27.306667 10.24 27.306667 27.306667S320.853333 433.493333 307.2 433.493333z"
          p-id="3536" fill="#979797"></path>
    <path d="M122.88 894.293333c-13.653333 0-27.306667-10.24-27.306667-27.306667L95.573333 416.426667c0-13.653333 10.24-27.306667 27.306667-27.306667s27.306667 10.24 27.306667 27.306667l0 453.973333C146.773333 884.053333 136.533333 894.293333 122.88 894.293333z"
          p-id="3537" fill="#979797"></path>
    <path d="M225.28 628.053333c-13.653333 0-27.306667-10.24-27.306667-27.306667l0-44.373333c0-13.653333 10.24-27.306667 27.306667-27.306667s27.306667 10.24 27.306667 27.306667l0 44.373333C249.173333 614.4 238.933333 628.053333 225.28 628.053333z"
          p-id="3538" fill="#979797"></path>
    <path d="M225.28 774.826667c-13.653333 0-27.306667-10.24-27.306667-27.306667l0-44.373333c0-13.653333 10.24-27.306667 27.306667-27.306667s27.306667 10.24 27.306667 27.306667l0 44.373333C249.173333 764.586667 238.933333 774.826667 225.28 774.826667z"
          p-id="3539" fill="#979797"></path>
    <path d="M727.04 286.72" p-id="3540" fill="#979797"></path>
    <path d="M716.8 406.186667" p-id="3541" fill="#979797"></path>
    <path d="M948.906667 433.493333l-218.453333 0c-13.653333 0-27.306667-10.24-27.306667-27.306667s10.24-27.306667 27.306667-27.306667l218.453333 0c3.413333 0 3.413333 0 3.413333-3.413333L952.32 314.026667c0-3.413333 0-3.413333-3.413333-3.413333l-228.693333 0c-13.653333 0-27.306667-10.24-27.306667-27.306667s10.24-27.306667 27.306667-27.306667l228.693333 0c30.72 0 54.613333 23.893333 54.613333 54.613333l0 61.44C1003.52 409.6 979.626667 433.493333 948.906667 433.493333z"
          p-id="3542" fill="#979797"></path>
    <path d="M914.773333 894.293333c-13.653333 0-27.306667-10.24-27.306667-27.306667L887.466667 413.013333c0-13.653333 10.24-27.306667 27.306667-27.306667s27.306667 10.24 27.306667 27.306667l0 457.386667C938.666667 884.053333 928.426667 894.293333 914.773333 894.293333z"
          p-id="3543" fill="#979797"></path>
    <path d="M812.373333 628.053333c-13.653333 0-27.306667-10.24-27.306667-27.306667l0-47.786667c0-13.653333 10.24-27.306667 27.306667-27.306667s27.306667 10.24 27.306667 27.306667l0 47.786667C839.68 617.813333 826.026667 628.053333 812.373333 628.053333z"
          p-id="3544" fill="#979797"></path>
    <path d="M812.373333 768c-13.653333 0-27.306667-10.24-27.306667-27.306667l0-47.786667c0-13.653333 10.24-27.306667 27.306667-27.306667s27.306667 10.24 27.306667 27.306667l0 47.786667C839.68 757.76 826.026667 768 812.373333 768z"
          p-id="3545" fill="#979797"></path>
</svg>