<?xml version="1.0" standalone="no"?><!DOCTYPE svg PUBLIC "-//W3C//DTD SVG 1.1//EN"
        "http://www.w3.org/Graphics/SVG/1.1/DTD/svg11.dtd">
<svg width="200" height="200" viewBox="0 0 200 200" version="1.1" xmlns="http://www.w3.org/2000/svg"
>
    <defs>
        <style type="text/css"><![CDATA[
@font-face { font-family: ifont; src: url("//at.alicdn.com/t/font_1442373896_4754455.eot?#iefix") format("embedded-opentype"), url("//at.alicdn.com/t/font_1442373896_4754455.woff") format("woff"), url("//at.alicdn.com/t/font_1442373896_4754455.ttf") format("truetype"), url("//at.alicdn.com/t/font_1442373896_4754455.svg#ifont") format("svg"); }

]]></style>
    </defs>
    <g class="transform-group">
        <g transform="scale(0.1953125, 0.1953125)">
            <path d="M1001.69039 316.961932 548.714691 161.207565c-28.237111-10.220782-22.314215-10.285251-50.321082-0.150426L42.67852 315.562049c-28.006867 10.139941-27.826765 26.641777 0.414439 36.863582l108.281145 36.729529c-47.951105 46.472428-51.058886 94.782713-51.703569 150.799518-18.532075 7.142677-31.686676 25.104771-31.686676 46.155203 0 19.329231 11.091616 36.055171 27.257807 44.194548-7.680936 56.915267-29.6636 121.939213-94.233198 198.980867 31.940456 24.729218 48.430012 32.969902 73.157183 41.215704 90.270956-38.761815 79.291904-141.822053 72.271-244.330728 12.394285-8.981559 20.465101-23.577998 20.465101-40.060391 0-17.668405-9.271154-33.165354-23.211654-41.913599 1.604544-54.891168 13.55983-103.996562 54.597479-135.768173 0.335644-0.839111 1.287319-1.609661 3.058662-2.321882l311.403333-125.861546c11.544941-4.626367 24.665773 0.980327 29.29214 12.530384l0.414439 1.02126c4.626367 11.550057-0.981351 24.665773-12.530384 29.296233L266.759041 428.297646l235.493455 79.882352c28.237111 10.222829 22.309098 10.285251 50.322106 0.146333l449.530227-154.50491C1030.11272 343.68148 1029.928524 327.178621 1001.69039 316.961932L1001.69039 316.961932zM501.534136 567.943127l-285.058314-96.627734 0 72.67009c14.902408 13.652951 23.12365 33.239032 23.12365 55.006801 0 19.566638-6.835685 37.367049-18.380626 50.687426 3.776 11.411911 10.353812 22.566972 19.755949 26.075889 165.898401 91.703585 395.2029 90.674139 579.647703-9.275247 13.676487-11.390421 24.260543-25.496697 24.260543-39.153742L844.883041 467.26003 552.077276 568.089459c-28.008914 10.140964-22.305005 10.07138-50.537-0.146333L501.534136 567.943127zM501.534136 567.943127"
                  fill="#ea8010"></path>
        </g>
    </g>
</svg>