<?xml version="1.0" standalone="no"?><!DOCTYPE svg PUBLIC "-//W3C//DTD SVG 1.1//EN"
        "http://www.w3.org/Graphics/SVG/1.1/DTD/svg11.dtd">
<svg t="1484482579366" class="icon" style="" viewBox="0 0 1024 1024" version="1.1" xmlns="http://www.w3.org/2000/svg"
     p-id="4727" width="200" height="200">
    <defs>
        <style type="text/css"></style>
    </defs>
    <path d="M511.999488 921.323503c-226.076022 0-409.339251-183.276187-409.339251-409.322479 0-226.066759 183.263229-409.322479 409.339251-409.322479 226.055555 0 409.339251 183.255721 409.339251 409.322479C921.338739 738.048339 738.055043 921.323503 511.999488 921.323503zM511.999488 196.294688c-174.348844 0-315.698804 141.344169-315.698804 315.685869 0 174.362166 141.34996 315.686892 315.698804 315.686892 174.369311 0 315.698804-141.323703 315.698804-315.666426C827.698292 337.638857 686.367776 196.294688 511.999488 196.294688z"
          p-id="4728" fill="#0FAEFF"></path>
    <path d="M395.793192 644.011616c0 4.736884 2.398728 9.373485 6.716234 12.051477 4.336949 2.65855 9.533511 2.738367 13.791663 0.599657L680.352535 524.652158c4.63679-2.318812 7.81531-7.115048 7.81531-12.651135 0-5.556553-3.177496-10.352789-7.81531-12.671601L416.300065 367.298364c-4.257128-2.118244-9.45369-2.038426-13.791663 0.6191-4.317506 2.677992-6.716234 7.314593-6.716234 12.051477L395.792168 644.011616 395.793192 644.011616z"
          p-id="4729" fill="#0FAEFF"></path>
</svg>