<?xml version="1.0" standalone="no"?><!DOCTYPE svg PUBLIC "-//W3C//DTD SVG 1.1//EN"
        "http://www.w3.org/Graphics/SVG/1.1/DTD/svg11.dtd">
<svg t="1483696364592" class="icon" style="" viewBox="0 0 1024 1024" version="1.1" xmlns="http://www.w3.org/2000/svg"
     p-id="2355" width="200" height="200">
    <defs>
        <style type="text/css"></style>
    </defs>
    <path d="M144.129509 398.05736c-60.88538 0-110.207655 49.424603-110.207654 110.309983s49.322274 110.309983 110.207654 110.309983S254.439492 569.355051 254.439492 508.367343c0-60.88538-49.424603-110.309983-110.309983-110.309983z m367.563506 0c-60.88538 0-110.207655 49.424603-110.207655 110.309983S450.807635 618.677326 511.693015 618.677326 621.90067 569.252723 621.90067 508.367343 572.578395 398.05736 511.693015 398.05736z m367.563505 0c-60.88538 0-110.207655 49.424603-110.207654 110.309983s49.322274 110.309983 110.207654 110.309983 110.207655-49.424603 110.207655-110.309983-49.322274-110.309983-110.207655-110.309983z"
          fill="#707070" p-id="2356"></path>
</svg>