<?xml version="1.0" standalone="no"?><!DOCTYPE svg PUBLIC "-//W3C//DTD SVG 1.1//EN"
        "http://www.w3.org/Graphics/SVG/1.1/DTD/svg11.dtd">
<svg width="24" height="24" viewBox="0 0 24 24" version="1.1" xmlns="http://www.w3.org/2000/svg"
>
    <defs>
        <style type="text/css"><![CDATA[
@font-face { font-family: ifont; src: url("//at.alicdn.com/t/font_1442373896_4754455.eot?#iefix") format("embedded-opentype"), url("//at.alicdn.com/t/font_1442373896_4754455.woff") format("woff"), url("//at.alicdn.com/t/font_1442373896_4754455.ttf") format("truetype"), url("//at.alicdn.com/t/font_1442373896_4754455.svg#ifont") format("svg"); }

]]></style>
    </defs>
    <g class="transform-group">
        <g transform="scale(0.0234375, 0.0234375)">
            <path d="M744.426607 959.264627 744.408187 959.264627l-4.619204-0.103354c-107.472733-5.497201-252.610298-106.652042-388.285351-270.595928l-50.115398-60.531632C165.713182 464.077547 94.631264 303.948547 111.25385 199.680808c11.732206-73.561389 121.098056-135.641283 183.590342-135.641283 30.780027 0 41.930995 15.31787 45.829791 24.464181 35.375695 62.86784 79.147618 172.198897 79.349209 211.411991l0.013303 2.790556-1.000793 2.605338c-7.801686 20.612457-25.25929 30.487362-40.661072 39.197744-20.290115 11.466146-31.82073 18.99461-33.228799 40.670282-0.418532 6.577812 5.254677 36.501332 94.765317 146.84137l38.268582 46.209438c89.75828 105.928564 117.998461 117.331265 124.610042 118.27373 21.644973 3.010567 31.837102-6.479575 47.40466-23.544229 11.850909-12.993942 25.295106-27.740808 47.478338-30.988782l2.808976-0.400113 2.761903 0.586354c39.08825 8.242731 139.142014 72.724325 195.942671 120.596635 8.200776 5.442966 22.512736 21.601994 11.17962 57.299007C892.588041 876.115881 815.084876 959.264627 744.426607 959.264627L744.426607 959.264627z"
                  fill="#1AB20A"></path>
        </g>
    </g>
</svg>