<?xml version="1.0" standalone="no"?><!DOCTYPE svg PUBLIC "-//W3C//DTD SVG 1.1//EN"
        "http://www.w3.org/Graphics/SVG/1.1/DTD/svg11.dtd">
<svg width="200" height="200" viewBox="0 0 200 200" version="1.1" xmlns="http://www.w3.org/2000/svg"
>
    <defs>
        <style type="text/css"><![CDATA[
@font-face { font-family: ifont; src: url("//at.alicdn.com/t/font_1442373896_4754455.eot?#iefix") format("embedded-opentype"), url("//at.alicdn.com/t/font_1442373896_4754455.woff") format("woff"), url("//at.alicdn.com/t/font_1442373896_4754455.ttf") format("truetype"), url("//at.alicdn.com/t/font_1442373896_4754455.svg#ifont") format("svg"); }

]]></style>
    </defs>
    <g class="transform-group">
        <g transform="scale(0.1953125, 0.1953125)">
            <path d="M725.305107 842.151325M540.610618 494.015394l-64.987107 0c-2.452865 0-4.495384 0.816598-6.129604 2.451842-1.909489 1.909489-2.727111 4.087085-2.452865 6.53995l0 59.673078c0 1.909489 0.816598 3.817955 2.452865 5.722328 1.63422 1.908466 3.677762 2.860141 6.129604 2.860141l64.987107 0c2.450818 0 4.495384-0.951675 6.129604-2.860141 1.359974-1.90335 2.177596-3.811816 2.452865-5.722328l0-59.673078c0-2.178619-0.817622-4.221138-2.452865-6.130627C544.556487 494.974231 542.512944 494.015394 540.610618 494.015394zM880.904954 766.94446c52.377928-75.461669 79.980589-163.262364 79.980589-254.959809 0-247.530606-201.351867-448.88759-448.882474-448.88759S63.114456 264.482697 63.114456 512.01535c0 247.466138 201.356984 448.852798 448.88759 448.88759 72.119551 0 143.519718-17.631566 207.457936-51.079352l165.374468 49.647747c11.824303 3.53757 24.422226 0.323365 33.05586-8.344039 8.639774-8.639774 11.853979-21.335934 8.346085-33.056883L880.904954 766.94446zM383.663076 683.660638c-0.274246 7.625678-2.592035 13.896498-6.948249 18.802228-4.361331 4.355191-9.949606 6.67298-16.757662 6.947226-6.813173-0.274246-12.402471-2.451842-16.757662-6.538927-4.361331-5.179976-6.538927-11.583826-6.538927-19.209504L336.660576 423.716304c0-7.356548 2.043542-13.078877 6.129604-17.165961 4.630461-4.355191 10.352789-6.538927 17.165961-6.538927 6.538927 0 11.987009 2.043542 16.349363 6.130627 4.903683 4.361331 7.356548 10.217712 7.356548 17.575284L383.662053 683.660638zM411.864372 407.367965c-6.813173-1.085728-12.809747-5.03876-17.983583-11.852956-12.261255-15.256472-23.028483-26.701129-32.28838-34.331923-6.271844-5.172813-9.949606-11.035334-11.036357-17.575284-0.274246-6.264681 1.77032-12.261255 6.131651-17.983583 4.355191-5.722328 9.80839-8.716522 16.349363-8.991792 6.538927-0.542352 13.078877 1.775436 19.617803 6.948249 32.148188 26.157753 47.820122 46.734394 47.0025 61.715597-0.816598 6.814196-4.087085 12.402471-9.80839 16.757662C423.851381 406.41629 417.854806 408.184563 411.864372 407.367965zM451.510324 616.631012c-9.541307-0.268106-16.897855-3.812839-22.071691-10.627035-6.538927-8.441253-9.674337-17.300015-9.400091-26.566052l0-98.909707c0-8.443299 2.995217-15.940041 8.991792-22.478967 6.538927-6.264681 14.030551-9.401114 22.478967-9.401114l24.113187 0 83.377966 0c10.895141-0.268106 20.027126 3.00238 27.384697 9.809413 6.264681 5.722328 9.534144 13.078877 9.80839 22.070668l0 98.909707c-0.274246 9.80839-4.227278 18.532075-11.851932 26.157753-7.631818 7.356548-16.081257 11.035334-25.341155 11.035334L451.510324 616.631012zM681.208796 644.424009c0 17.165961-7.089465 33.107025-21.25407 47.820122-15.804964 15.256472-48.228421 19.47761-97.274464 12.669554-7.906064-2.727111-13.487176-7.088442-16.757662-13.078877-2.452865-5.996574-2.727111-12.261255-0.816598-18.800181 6.538927-15.262612 17.708314-20.027126 33.514301-14.305821 21.253046 2.720971 35.149545 2.044566 41.689495-2.043542 9.259898-6.27082 13.895475-16.080234 13.895475-29.42824L634.205273 409.411507c-0.274246-8.991792-2.592035-15.940041-6.947226-20.844747-4.362354-4.355191-11.175527-6.538927-20.436448-6.538927L477.667054 382.027833c-8.173147-0.268106-14.713097-2.586918-19.617803-6.948249-4.087085-4.630461-6.27082-10.217712-6.538927-16.757662 0.542352-7.082302 2.860141-12.669554 6.948249-16.757662 5.17179-4.355191 11.577686-6.53995 19.208481-6.53995l148.773372 0c19.618826-0.268106 33.649378 4.495384 42.098817 14.305821 8.441253 9.541307 12.670577 22.88829 12.670577 40.054251L681.20982 644.424009z"
                  fill="#C75115"></path>
        </g>
    </g>
</svg>