<?xml version="1.0" standalone="no"?><!DOCTYPE svg PUBLIC "-//W3C//DTD SVG 1.1//EN"
        "http://www.w3.org/Graphics/SVG/1.1/DTD/svg11.dtd">
<svg t="1493219994716" class="icon" style="" viewBox="0 0 1024 1024" version="1.1" xmlns="http://www.w3.org/2000/svg"
     p-id="2396" width="500" height="500">
    <defs>
        <style type="text/css"></style>
    </defs>
    <path d="M512 0.80384C229.6832 0.80384 0.80384 229.6832 0.80384 512c0 282.31168 228.87936 511.19616 511.19616 511.19616 282.31168 0 511.19616-228.88448 511.19616-511.19616C1023.19616 229.6832 794.31168 0.80384 512 0.80384zM512 164.38272c88.4224 0 151.36256 86.90688 143.69792 179.04128C648.3456 431.46752 582.92736 491.66848 512 491.66848c-70.92736 0-136.38656-60.20096-143.68768-148.24448C360.6016 251.29472 423.5776 164.38272 512 164.38272zM717.27616 812.48256c-53.23264 6.23104-128.95744 6.23104-205.27616 6.23104-74.5216 0-145.13152 0-204.2368-6.23104-76.48256-8.10496-102.4768-59.66336-102.4768-87.37792 0-80.98816 136.704-187.5456 305.36192-187.5456 168.61696 0 308.0704 106.55744 308.0704 187.5456C818.7136 752.8192 792.59648 803.62496 717.27616 812.48256z"
          p-id="2397" fill="#04BE02"></path>
</svg>